<svg id="bread" xmlns="http://www.w3.org/2000/svg" viewBox="0 0 336.43 314"><defs><style>.a{fill:#00295b;}</style></defs><title>bread.svg</title><path class="a" d="M328.83,146.45c-4.37-30.24-5.07-40.71-4.83-44a55,55,0,0,1,3.5-5.69c4-5.94,8.92-13.33,8.92-22.46C336.43,35.15,284.38,0,215.53,0,158.28,0,99.2,20.56,57.56,43.81A138.12,138.12,0,0,0,34.8,57.91l-.26.17s0,0,0,.05C13.14,74.63,0,95.56,0,114.58,0,123.7,4.94,131.09,8.93,137a52.59,52.59,0,0,1,3.52,5.72c.25,3-.4,13.4-4.84,44-.3,2.09-.55,3.78-.71,5-8.11,59.46-6.66,87.84,5.39,104.74C22.66,311,39.21,314,60.87,314c7.52,0,16.05-.35,25.08-.72,11.32-.47,24.13-1,38.32-1s27,.53,38.32,1c9,.38,17.56.72,25.08.72,4,0,7.79-.15,11.45-.41l0,.06a26.61,26.61,0,0,0,3.68-.33c9.82-1,18.21-3.45,25-8.37,36.4-16.1,88.54-49.94,96.34-60.88,12.06-16.9,13.51-33.19,5.39-92.65-.17-1.17-.42-2.88-.71-5m-97.19,47.22c13,95.44,1.1,108.24-44,108.24-16.54,0-37.54-1.73-63.4-1.73s-46.86,1.73-63.4,1.73c-45.06,0-57-12.81-44-108.24,1.16-8.42,6.91-45.31,5.44-53.65-1.26-7.17-12.2-16.74-12.2-25.44,0-31.42,51.1-74.27,114.13-74.27s114.13,42.86,114.13,74.27c0,8.7-10.94,18.27-12.2,25.44-1.47,8.35,4.29,45.24,5.44,53.65"/></svg>
