<svg class="social-icon" xmlns="http://www.w3.org/2000/svg" viewBox="0 0 17.13 17.13"><title>icon_ig</title><path d="M17.08,12.1a5.09,5.09,0,0,1-1.38,3.59,5.09,5.09,0,0,1-3.59,1.38c-1.18.07-2.35.06-3.54.06s-2.35,0-3.54-.06a5.09,5.09,0,0,1-3.59-1.38A5.09,5.09,0,0,1,.06,12.1C0,10.92,0,9.75,0,8.57S0,6.21.06,5A5.09,5.09,0,0,1,1.44,1.44,5.09,5.09,0,0,1,5,.06C6.21,0,7.38,0,8.57,0s2.35,0,3.54.06a5.09,5.09,0,0,1,3.59,1.38A5.09,5.09,0,0,1,17.08,5c.07,1.18.06,2.35.06,3.54S17.14,10.92,17.08,12.1ZM3.51,1.89a2.73,2.73,0,0,0-1,.65,2.73,2.73,0,0,0-.65,1c-.45,1.13-.35,3.8-.35,5.05s-.1,3.93.35,5.05a2.73,2.73,0,0,0,.65,1,2.73,2.73,0,0,0,1,.65c1.13.45,3.8.35,5.05.35s3.93.1,5.05-.35a2.92,2.92,0,0,0,1.63-1.63c.45-1.13.35-3.8.35-5.05s.1-3.93-.35-5.05a2.73,2.73,0,0,0-.65-1,2.73,2.73,0,0,0-1-.65c-1.13-.45-3.8-.35-5.05-.35S4.64,1.44,3.51,1.89ZM8.57,13A4.39,4.39,0,1,1,13,8.57,4.39,4.39,0,0,1,8.57,13Zm0-7.25a2.86,2.86,0,1,0,2.86,2.86A2.86,2.86,0,0,0,8.57,5.71ZM13.14,5a1,1,0,1,1,1-1A1,1,0,0,1,13.14,5Z"/></svg>
