<svg class="social_icon" xmlns="http://www.w3.org/2000/svg" viewBox="0 0 17.13 17.13"><title>icon_tw</title><path d="M17.13,13.92a3.21,3.21,0,0,1-3.21,3.21H3.21A3.21,3.21,0,0,1,0,13.92V3.21A3.21,3.21,0,0,1,3.21,0H13.92a3.21,3.21,0,0,1,3.21,3.21ZM12.93,5.76a2.37,2.37,0,0,0,1-1.3A4.67,4.67,0,0,1,12.47,5a2.34,2.34,0,0,0-4,1.61,2.14,2.14,0,0,0,.06.54A6.66,6.66,0,0,1,3.64,4.71a2.38,2.38,0,0,0-.32,1.18,2.31,2.31,0,0,0,1,2,2.8,2.8,0,0,1-1.12-.29v0a2.39,2.39,0,0,0,1.93,2.3,2,2,0,0,1-.57.09,2.86,2.86,0,0,1-.44,0,2.36,2.36,0,0,0,2.19,1.63,4.71,4.71,0,0,1-2.91,1,4.61,4.61,0,0,1-.56,0A6.67,6.67,0,0,0,13.12,6.89a2.69,2.69,0,0,0,0-.3,4.51,4.51,0,0,0,1.17-1.22A5,5,0,0,1,12.93,5.76Z"/></svg>
